<?xml version="1.0" standalone="no"?><!DOCTYPE svg PUBLIC "-//W3C//DTD SVG 1.1//EN" "http://www.w3.org/Graphics/SVG/1.1/DTD/svg11.dtd"><svg t="1568296527992" class="icon" viewBox="0 0 1024 1024" version="1.1" xmlns="http://www.w3.org/2000/svg" p-id="1493" xmlns:xlink="http://www.w3.org/1999/xlink" width="200" height="200"><defs><style type="text/css"></style></defs><path d="M427.6 150.2c-58.3 95-141.5 155.6-249.7 181.8-108.2 26.2-126.2 81.7-54 166.6 72.2 84.9 104 182.9 95.4 294.1s38.5 145.5 141.4 102.9c102.9-42.6 205.8-42.6 308.7 0 102.9 42.6 150 8.3 141.4-102.9-8.6-111.2 23.2-209.2 95.4-294.1 72.2-84.9 54.2-140.4-54-166.6-108.2-26.2-191.5-86.8-249.8-181.8-58.2-95.1-116.5-95.1-174.8 0z" fill="#787AF6" p-id="1494"></path><path d="M866.6 335.7c23.8 49.3 38 104.2 40.2 162.1 68.2-80.6 54.8-134.6-40.2-162.1zM92.6 453.4c5.2-35.2 14.8-69 28.4-100.7-41.7 23.1-51.1 56.7-28.4 100.7zM355.7 897.5c-51.5-19-98.1-48.1-137.4-84.8-1.4 93.4 44.4 121.7 137.4 84.8zM573.7 111c-37.4-40.9-74.7-42.8-112.1-5.5 11.9-1 23.9-1.6 36-1.6 26 0.1 51.5 2.5 76.1 7.1zM657 890.6c4.1 1.6 8.3 3.2 12.4 4.9 102.9 42.6 150 8.3 141.4-102.9-0.4-4.9-0.7-9.7-0.9-14.5-41.2 48.5-93.5 87.4-152.9 112.5z" fill="#787AF6" p-id="1495"></path><path d="M613.1 166.7c-3.6-5.4-7.2-10.9-10.6-16.5-9.6-15.6-19.1-28.6-28.7-39.1-24.7-4.6-50.1-7.1-76.1-7.1-12.1 0-24.1 0.5-36 1.6-10.1 10-20.1 22.9-30.2 38.6 15.9-2.2 32.2-3.3 48.8-3.3 46.9-0.1 91.7 9.1 132.8 25.8zM164.4 335.5c-17.1 4.9-31.6 10.6-43.5 17.2-13.5 31.7-23.2 65.5-28.4 100.7 7.2 14 17.6 29 31.3 45.1 1 1.2 2.1 2.4 3.1 3.7-0.1-2.7-0.1-5.3-0.1-8 0.1-57.1 13.6-111 37.6-158.7zM906.2 498.5c0.2-0.2 0.3-0.4 0.5-0.6-2.2-57.9-16.4-112.8-40.2-162.1-4.6-1.3-9.4-2.6-14.4-3.8-25.3-6.1-49.1-14.1-71.7-24 33.6 54.1 53 117.8 53 186.2 0 195.1-158.2 353.3-353.3 353.3-103 0-195.7-44.1-260.2-114.3 1.1 19.4 0.9 39.2-0.7 59.5-0.5 7-0.9 13.7-1 20.1 39.4 36.7 86 65.8 137.4 84.8 1.6-0.7 3.3-1.3 5-2 98.8-40.9 197.5-42.5 296.3-4.9 59.5-25.2 111.8-64 152.9-112.5-4.7-105.3 27.3-198.5 96.4-279.7z" fill="#817EF8" p-id="1496"></path><path d="M480.2 847.4c195.1 0 353.3-158.2 353.3-353.3 0-68.3-19.4-132.1-53-186.2-68.3-29.9-124.1-77-167.4-141.3-41-16.7-85.9-25.9-132.9-25.9-16.5 0-32.8 1.1-48.8 3.3-1.3 2-2.5 3.9-3.8 6-7.1 11.5-14.5 22.6-22.3 33.1 18.6-3.6 37.8-5.6 57.5-5.6 164.1 0 297.2 133.1 297.2 297.2S626.9 772.1 462.7 772.1 165.5 639 165.5 474.9c0-55.1 15-106.7 41.1-150.9-9.4 2.9-19 5.6-28.8 8-4.7 1.1-9.2 2.3-13.5 3.6-24 47.7-37.5 101.6-37.5 158.7 0 2.7 0 5.3 0.1 8 57.1 68.5 88.1 145.5 93 230.9 64.6 70.2 157.3 114.2 260.3 114.2z" fill="#8A81F9" p-id="1497"></path><path d="M462.7 772.1C626.9 772.1 760 639 760 474.9S626.9 177.7 462.7 177.7c-19.7 0-38.9 1.9-57.5 5.6-11.8 15.9-24.4 30.6-37.9 44.2 24.4-8.3 50.6-12.9 77.9-12.9 133.2 0 241.1 107.9 241.1 241.1s-107.8 241.1-241 241.1-241.1-108-241.1-241.2c0-57.3 20-109.9 53.4-151.3-16.2 7.5-33.2 14.1-50.9 19.6-26.1 44.2-41.1 95.8-41.1 150.9-0.1 164.2 133 297.3 297.1 297.3z" fill="#9385FB" p-id="1498"></path><path d="M445.3 696.8c133.2 0 241.1-107.9 241.1-241.1S578.5 214.5 445.3 214.5c-27.3 0-53.5 4.5-77.9 12.9-31.9 32.1-68.5 57.8-109.8 76.9-33.4 41.4-53.4 94-53.4 151.3 0 133.2 108 241.2 241.1 241.2z m-17.4-445.4c102.2 0 185 82.8 185 185s-82.8 185-185 185-185-82.8-185-185 82.8-185 185-185z" fill="#9D89FC" p-id="1499"></path><path d="M427.9 621.4c102.2 0 185-82.8 185-185s-82.8-185-185-185-185 82.8-185 185 82.8 185 185 185z m-17.4-333.2c71.2 0 128.9 57.7 128.9 128.9S481.7 546 410.5 546s-128.9-57.7-128.9-128.9 57.7-128.9 128.9-128.9z" fill="#A68CFD" p-id="1500"></path><path d="M410.5 417.2m-128.9 0a128.9 128.9 0 1 0 257.8 0 128.9 128.9 0 1 0-257.8 0Z" fill="#AF90FF" p-id="1501"></path><path d="M515 96.9c10.4 0 21 4.5 32.3 13.8 12.9 10.5 26.3 27 39.7 48.9 60.6 98.8 148.3 162.7 260.8 189.9 24.9 6 44.7 13.7 58.7 22.7 12.3 8 19.9 16.7 23.1 26.6 3.2 9.9 2.2 21.4-3.1 35.1-6 15.6-17.5 33.4-34.2 53-75.1 88.2-108.6 191.6-99.6 307.2 3.3 42.8-2.3 73.4-16.2 88.4-8 8.6-19.3 12.8-34.6 12.8-17.5 0-39.6-5.5-65.8-16.3-53.4-22.1-107.6-33.3-161.2-33.3-53.6 0-107.8 11.2-161.2 33.3-26.2 10.8-48.3 16.3-65.8 16.3-15.3 0-26.7-4.2-34.6-12.8-13.9-15-19.5-45.6-16.2-88.4 9-115.6-24.6-218.9-99.6-307.2-16.7-19.6-28.2-37.4-34.2-53-5.3-13.7-6.3-25.2-3.1-35.1 3.2-9.9 10.8-18.6 23.1-26.6 14-9.1 33.7-16.7 58.7-22.7 112.5-27.2 200.3-91.1 260.8-189.9 13.4-21.9 26.8-38.4 39.7-48.9 11.6-9.3 22.1-13.8 32.5-13.8m0-18c-29.1 0-58.3 23.8-87.4 71.3-58.3 95-141.5 155.6-249.7 181.8-108.2 26.2-126.2 81.7-54 166.6 72.2 84.9 104 182.9 95.4 294.1C213 873 236 913.2 288.1 913.2c19.9 0 44.1-5.9 72.6-17.7 51.4-21.3 102.9-31.9 154.3-31.9s102.9 10.6 154.3 31.9c28.5 11.8 52.7 17.7 72.6 17.7 52.1 0 75-40.2 68.8-120.6-8.6-111.2 23.2-209.2 95.4-294.1 72.2-84.9 54.2-140.4-54-166.6-108.1-26.1-191.4-86.7-249.7-181.7-29.1-47.5-58.2-71.3-87.4-71.3z" fill="#676EE5" p-id="1502"></path><path d="M473.1 349c-28 45.5-68 74.5-119.9 87.1-52 12.5-60.6 39.1-25.9 79.8 34.7 40.7 50 87.6 45.8 140.9-4.1 53.3 18.5 69.7 67.9 49.3 49.4-20.4 98.8-20.4 148.3 0 49.4 20.4 72.1 4 67.9-49.3-4.1-53.3 11.1-100.2 45.8-140.9 34.7-40.7 26-67.3-25.9-79.8-52-12.5-92-41.6-119.9-87.1-28.2-45.5-56.2-45.5-84.1 0z" fill="#CDC5FF" p-id="1503"></path><path d="M316.2 368.7c-6.4 0-12.6-3.4-15.9-9.5-4.7-8.8-1.4-19.7 7.4-24.4 60.8-32.6 98.4-72.4 98.8-72.8 6.8-7.3 18.2-7.6 25.4-0.9 7.3 6.8 7.6 18.2 0.9 25.4-1.7 1.8-42.1 44.6-108.1 79.9-2.7 1.6-5.6 2.3-8.5 2.3z" fill="#FFFFFF" p-id="1504"></path><path d="M250.7 396.9c-7.3 0-14.2-4.5-16.9-11.7-3.5-9.3 1.3-19.7 10.6-23.1l10.5-3.9c9.3-3.5 19.7 1.3 23.1 10.6s-1.3 19.7-10.6 23.1l-10.5 3.9c-2 0.7-4.1 1.1-6.2 1.1z" fill="#FFFFFF" p-id="1505"></path></svg>