<?xml version="1.0" standalone="no"?><!DOCTYPE svg PUBLIC "-//W3C//DTD SVG 1.1//EN" "http://www.w3.org/Graphics/SVG/1.1/DTD/svg11.dtd"><svg t="1568296508569" class="icon" viewBox="0 0 1024 1024" version="1.1" xmlns="http://www.w3.org/2000/svg" p-id="1084" xmlns:xlink="http://www.w3.org/1999/xlink" width="200" height="200"><defs><style type="text/css"></style></defs><path d="M458.8 127.1L149.2 345.2c-24 16.9-38.2 44.3-38.2 73.6v416.4c0 22.4 18.3 40.6 40.8 40.6h196.4c31.4 0 56.9-25.4 56.9-56.7v-49.2c0-22.4 18.3-40.6 40.8-40.6h130.3c22.5 0 40.8 18.2 40.8 40.6v49.2c0 31.3 25.5 56.7 56.9 56.7h196.4c22.5 0 40.8-18.2 40.8-40.6V418.7c0-29.3-14.2-56.7-38.2-73.6l-309.7-218c-31.3-22.1-73.1-22.1-104.4 0z" fill="#817EF8" p-id="1085"></path><path d="M111 773.4v61.7c0 22.4 18.3 40.6 40.8 40.6h37c-30.8-29.9-57-64.4-77.8-102.3zM911 418.7c0-29.3-14.2-56.7-38.2-73.6l-14.9-10.5c23.8 37.6 41.9 79.2 53.2 123.5l-0.1-39.4zM585 142.5l-21.9-15.4c-31.3-22-73.1-22-104.4 0l-10.3 7.3c14-1.4 28.3-2.1 42.7-2.1 32.3 0 63.7 3.5 93.9 10.2zM911 835.1V672.9c-20 78.4-61.3 148.2-117.4 202.9h76.7c22.4-0.1 40.7-18.2 40.7-40.7z" fill="#787AF6" p-id="1086"></path><path d="M111 640v133.4c20.8 37.9 47.1 72.4 77.8 102.3H298C206.6 827.4 137.7 742.2 111 640zM911 672.9V458.1c-11.3-44.3-29.4-85.8-53.2-123.5L585 142.5c-30.2-6.7-61.7-10.2-93.9-10.2-14.4 0-28.7 0.7-42.7 2.1l-69 48.6c29.8-7.7 61.1-11.7 93.3-11.7 206.5 0 373.9 167.4 373.9 373.9 0 140.7-77.7 263.3-192.6 327.1 6.2 2.3 12.9 3.5 19.8 3.5h119.7C849.7 821 891 751.2 911 672.9zM149.2 345.2c-24 16.9-38.2 44.3-38.2 73.6v31.5c10.9-41.6 28.7-80.4 52.3-115l-14.1 9.9z" fill="#817EF8" p-id="1087"></path><path d="M846.6 545.1c0-206.5-167.4-373.9-373.9-373.9-32.2 0-63.5 4.1-93.3 11.7L163.2 335.3c-23.5 34.6-41.4 73.4-52.3 115V640c26.7 102.2 95.6 187.4 187 235.7h50.2c25.8 0 47.6-17.2 54.6-40.7-149.2-24.6-263-154.1-263-310.3 0-173.7 140.8-314.5 314.5-314.5S768.7 351 768.7 524.7c0 114.2-60.8 214.1-151.8 269.2V819c0 24.4 15.4 45.1 37 53.1 114.9-63.7 192.7-186.3 192.7-327z" fill="#8A81F9" p-id="1088"></path><path d="M768.8 524.8c0-173.7-140.8-314.5-314.5-314.5S139.7 351.1 139.7 524.8c0 156.1 113.8 285.7 263 310.3 1.5-5.1 2.3-10.4 2.3-16v-49.2c0-4.2 0.6-8.2 1.8-12-127.3-14.4-226.2-122.4-226.2-253.5 0-140.9 114.2-255.1 255.1-255.1s255.1 114.2 255.1 255.1c0 97.3-54.4 181.8-134.5 224.9H576c22.5 0 40.8 18.2 40.8 40.6V794c91.1-55.1 152-155.1 152-269.2z" fill="#9385FB" p-id="1089"></path><path d="M690.9 504.4c0-140.9-114.2-255.1-255.1-255.1S180.7 363.5 180.7 504.4c0 131.1 98.9 239.1 226.2 253.5 5.1-16.6 20.6-28.6 39-28.6h110.7c79.9-43.1 134.3-127.6 134.3-224.9zM417.4 679.8c-108.1 0-195.8-87.7-195.8-195.8s87.7-195.8 195.8-195.8S613.1 375.9 613.1 484s-87.6 195.8-195.7 195.8z" fill="#9D89FC" p-id="1090"></path><path d="M417.4 288.3c-108.1 0-195.8 87.7-195.8 195.8s87.7 195.8 195.8 195.8S613.1 592.2 613.1 484s-87.6-195.7-195.7-195.7z m-18.5 311.8c-75.3 0-136.4-61.1-136.4-136.4s61.1-136.4 136.4-136.4 136.4 61.1 136.4 136.4-61 136.4-136.4 136.4z" fill="#A68CFD" p-id="1091"></path><path d="M398.9 463.7m-136.4 0a136.4 136.4 0 1 0 272.8 0 136.4 136.4 0 1 0-272.8 0Z" fill="#AF90FF" p-id="1092"></path><path d="M511 128.5c15.1 0 29.5 4.6 41.8 13.3l309.6 218.1c19.2 13.5 30.6 35.5 30.6 58.9v416.4c0 12.5-10.2 22.6-22.8 22.6H673.8c-21.4 0-38.9-17.3-38.9-38.7v-49.2c0-32.3-26.4-58.6-58.8-58.6H445.8c-32.4 0-58.8 26.3-58.8 58.6v49.2c0 21.3-17.4 38.7-38.9 38.7H151.8c-12.6 0-22.8-10.2-22.8-22.6V418.7c0-23.4 11.4-45.4 30.6-58.9l309.6-218.1c12.2-8.6 26.7-13.2 41.8-13.2m0-18c-18.3 0-36.6 5.5-52.2 16.5L149.2 345.2c-24 16.9-38.2 44.3-38.2 73.6v416.4c0 22.4 18.3 40.6 40.8 40.6h196.4c31.4 0 56.9-25.4 56.9-56.7v-49.2c0-22.4 18.3-40.6 40.8-40.6h130.3c22.5 0 40.8 18.2 40.8 40.6v49.2c0 31.3 25.5 56.7 56.9 56.7h196.4c22.5 0 40.8-18.2 40.8-40.6V418.7c0-29.3-14.2-56.7-38.2-73.6l-309.7-218c-15.7-11-33.9-16.6-52.2-16.6z" fill="#676EE5" p-id="1093"></path><path d="M226.5 455.6c-6.2 0-11.1-5-11.1-11.1v-3c0-22.1 10.5-42.7 28.3-55.5l228.8-164.5c23.1-16.6 54.1-16.6 77.2 0L778.4 386c17.7 12.7 28.3 33.4 28.3 55.5v3c0 6.2-5 11.1-11.1 11.1H226.5z" fill="#CDC5FF" p-id="1094"></path><path d="M176 664.1c-9.9 0-18-8-18-18l-0.1-124.1c0-9.9 8-18 18-18 9.9 0 18 8 18 18l0.1 124.1c0 9.9-8.1 18-18 18zM176 734.6c-9.9 0-18-8-18-18v-10.5c0-9.9 8-18 18-18 9.9 0 18 8 18 18v10.5c0 9.9-8 18-18 18z" fill="#FFFFFF" p-id="1095"></path></svg>