<?xml version="1.0" standalone="no"?><!DOCTYPE svg PUBLIC "-//W3C//DTD SVG 1.1//EN" "http://www.w3.org/Graphics/SVG/1.1/DTD/svg11.dtd"><svg t="1568298152898" class="icon" viewBox="0 0 1024 1024" version="1.1" xmlns="http://www.w3.org/2000/svg" p-id="7229" data-spm-anchor-id="a313x.7781069.0.i59" xmlns:xlink="http://www.w3.org/1999/xlink" width="200" height="200"><defs><style type="text/css"></style></defs><path d="M515 97.2c230.3 0 417 186.7 417 417s-186.7 417-417 417c-67 0-130.3-15.8-186.4-43.9-27.3-13.7-140.4 29.6-163.9 10.5-26.1-21.2 38-105.3 17.6-132.1C129.5 695.8 98 608.6 98 514.2c0-230.3 186.7-417 417-417z" fill="#ffffff" p-id="7230"></path><path d="M515 97.2c-69.9 0-135.8 17.2-193.6 47.6 49.2-20 103.1-31 159.5-31 234.5 0 424.5 190.1 424.5 424.5 0 108-40.3 206.6-106.8 281.5 82-76.2 133.4-184.9 133.4-305.7 0-230.2-186.7-416.9-417-416.9zM172.7 830.4c-10.7 28.2-21.6 56.4-8 67.5 12.1 9.9 48.2 3.1 84.1-3.9-27.8-18.3-53.3-39.6-76.1-63.6z" fill="#ffffff" p-id="7231"></path><path d="M480.9 113.8c-56.4 0-110.2 11-159.5 31C207.8 204.4 125.1 315 103.6 446.1 137.1 278.4 285.2 152 462.8 152c202.3 0 366.4 164 366.4 366.4s-164 366.4-366.4 366.4c-157.1 0-291.1-98.9-343.2-237.8 14.5 43.2 35.8 83.2 62.8 118.7 9.7 12.8 0.1 38.8-9.7 64.7 22.8 24 48.3 45.3 76.1 63.5 33.4-6.5 66.6-13.2 79.8-6.6 56.1 28.1 119.4 43.9 186.4 43.9 109.5 0 209.2-42.2 283.6-111.3C865 745 905.4 646.4 905.4 538.4c0-234.5-190-424.6-424.5-424.6z" fill="#ffffff" p-id="7232" data-spm-anchor-id="a313x.7781069.0.i56" class=""></path><path d="M462.8 884.7c202.3 0 366.4-164 366.4-366.4S665.2 152 462.8 152c-177.6 0-325.7 126.4-359.2 294.1-3.6 22.1-5.5 44.9-5.5 68 0 46.4 7.6 91.1 21.6 132.8 52 139 186 237.8 343.1 237.8z m-18.1-694.5c170.2 0 308.2 138 308.2 308.2s-138 308.2-308.2 308.2-308.2-138-308.2-308.2 138-308.2 308.2-308.2z" fill="#ffffff" p-id="7233" data-spm-anchor-id="a313x.7781069.0.i55" class=""></path><path d="M444.7 806.6c170.2 0 308.2-138 308.2-308.2s-138-308.2-308.2-308.2-308.2 138-308.2 308.2 138 308.2 308.2 308.2z m-18-578.2c138.1 0 250 111.9 250 250s-111.9 250-250 250-250-111.9-250-250 111.9-250 250-250z" fill="#ffffff" p-id="7234" data-spm-anchor-id="a313x.7781069.0.i60" class=""></path><path d="M426.7 728.5c138.1 0 250-111.9 250-250s-111.9-250-250-250-250 111.9-250 250 111.9 250 250 250z m-18.1-461.9c106 0 191.9 85.9 191.9 191.9s-85.9 191.9-191.9 191.9-191.9-85.9-191.9-191.9 85.9-191.9 191.9-191.9z" fill="#ffffff" p-id="7235"></path><path d="M408.6 650.3c106 0 191.9-85.9 191.9-191.9s-85.9-191.9-191.9-191.9-191.9 85.9-191.9 191.9 85.9 191.9 191.9 191.9z m-18.1-345.4c73.8 0 133.7 59.8 133.7 133.7s-59.8 133.7-133.7 133.7-133.7-59.8-133.7-133.7 59.9-133.7 133.7-133.7z" fill="#ffffff" p-id="7236" data-spm-anchor-id="a313x.7781069.0.i63" class=""></path><path d="M390.5 438.5m-133.7 0a133.7 133.7 0 1 0 267.4 0 133.7 133.7 0 1 0-267.4 0Z" fill="#ffffff" p-id="7237" data-spm-anchor-id="a313x.7781069.0.i61" class=""></path><path d="M515 115.2c53.9 0 106.1 10.5 155.3 31.3 47.5 20.1 90.2 48.9 126.8 85.5s65.4 79.3 85.5 126.8C903.5 408 914 460.3 914 514.2c0 53.9-10.5 106.1-31.3 155.3-20.1 47.5-48.9 90.2-85.5 126.8-36.7 36.6-79.3 65.4-126.8 85.5-49.2 20.8-101.4 31.3-155.3 31.3-31.5 0-62.8-3.7-93.1-10.9-29.4-7-58.1-17.5-85.2-31.1-6.2-3.1-14.1-4.6-24.2-4.6-17.7 0-40.6 4.5-65 9.2-22.6 4.4-45.9 8.9-61.5 8.9-5.4 0-8.2-0.5-9.5-0.9-0.3-1.5-0.4-5.5 1.7-14 2.4-9.4 6.5-20.3 10.9-31.9 11.6-30.6 23.5-62.1 7.6-83.1-25.7-33.9-45.7-71.4-59.4-111.5-14.2-41.5-21.4-84.9-21.4-129.1 0-53.9 10.5-106.1 31.3-155.3 20.1-47.5 48.9-90.2 85.5-126.8 36.6-36.6 79.3-65.4 126.8-85.5 49.3-20.8 101.6-31.3 155.4-31.3m0-18c-230.3 0-417 186.7-417 417 0 94.5 31.4 181.6 84.4 251.5 20.3 26.8-43.7 110.9-17.6 132.1 4.4 3.5 11.8 4.9 21.3 4.9 34.2 0 94.2-18.2 126.4-18.2 6.8 0 12.3 0.8 16.1 2.7 56.1 28.1 119.4 43.9 186.4 43.9 230.3 0 417-186.7 417-417 0-230.2-186.7-416.9-417-416.9z" fill="#666666" p-id="7238" data-spm-anchor-id="a313x.7781069.0.i57" class=""></path><path d="M358.7 390.4c-57.6 0-104.3 46.7-104.3 104.3 0 57.6 46.7 104.3 104.3 104.3 57.6 0 104.3-46.7 104.3-104.3-0.1-57.7-46.8-104.3-104.3-104.3z m312.7 0c-57.6 0-104.3 46.7-104.3 104.3 0 57.6 46.7 104.3 104.3 104.3 57.6 0 104.3-46.7 104.3-104.3 0-57.7-46.7-104.3-104.3-104.3z" fill="#cdcdcd" p-id="7239" data-spm-anchor-id="a313x.7781069.0.i62" class="selected"></path><path d="M235.6 327.8c-5.1 1.3-10.8 0.4-15.4-3.1-7.9-6-9.5-17.3-3.5-25.2 45.3-59.7 93.9-92.8 95.9-94.2 8.2-5.6 19.4-3.4 25 4.8 5.6 8.2 3.4 19.4-4.8 25-0.8 0.5-46 31.7-87.4 86.2-2.5 3.3-6 5.5-9.8 6.5zM197.5 388c-4.3 1.1-9.1 0.6-13.3-1.8-8.7-4.9-11.7-15.9-6.9-24.5l5.5-9.8c4.9-8.7 15.9-11.7 24.5-6.9 8.7 4.9 11.7 15.9 6.9 24.5l-5.5 9.8c-2.5 4.6-6.6 7.6-11.2 8.7z" fill="#ffffff" p-id="7240"></path></svg>