<?xml version="1.0" standalone="no"?><!DOCTYPE svg PUBLIC "-//W3C//DTD SVG 1.1//EN" "http://www.w3.org/Graphics/SVG/1.1/DTD/svg11.dtd"><svg t="1567689420788" class="icon" viewBox="0 0 1024 1024" version="1.1" xmlns="http://www.w3.org/2000/svg" p-id="1766" xmlns:xlink="http://www.w3.org/1999/xlink" width="200" height="200"><defs><style type="text/css"></style></defs><path d="M0 0m204.8 0l614.4 0q204.8 0 204.8 204.8l0 614.4q0 204.8-204.8 204.8l-614.4 0q-204.8 0-204.8-204.8l0-614.4q0-204.8 204.8-204.8Z" fill="#FF8AAE" p-id="1767"></path><path d="M819.2 0H534.272A756.48 756.48 0 0 0 0 483.584V819.2a204.8 204.8 0 0 0 204.8 204.8h614.4a204.8 204.8 0 0 0 204.8-204.8V204.8a204.8 204.8 0 0 0-204.8-204.8z" fill="#FF83A4" p-id="1768"></path><path d="M819.2 0h-3.84a755.2 755.2 0 0 0-539.392 1024H819.2a204.8 204.8 0 0 0 204.8-204.8V204.8a204.8 204.8 0 0 0-204.8-204.8z" fill="#FF7D96" p-id="1769"></path><path d="M497.152 721.152A752.384 752.384 0 0 0 560.384 1024H819.2a204.8 204.8 0 0 0 204.8-204.8V204.8a204.8 204.8 0 0 0-89.088-168.96 755.2 755.2 0 0 0-437.76 685.312z" fill="#FF768A" p-id="1770"></path><path d="M411.333045 545.258555m31.455438 22.025335l0 0q31.455439 22.025335 9.430103 53.480774l-161.519124 230.673216q-22.025335 31.455439-53.480774 9.430103l0 0q-31.455439-22.025335-9.430103-53.480774l161.519124-230.673215q22.025335-31.455439 53.480774-9.430104Z" fill="#FFFFFF" p-id="1771"></path><path d="M560.087785 399.487547m-139.49379 199.217777a243.2 243.2 0 1 0 278.987579-398.435554 243.2 243.2 0 1 0-278.987579 398.435554Z" fill="#FFE9F1" p-id="1772"></path><path d="M761.344 446.72a242.432 242.432 0 0 0 38.4-88.32 243.2 243.2 0 0 0-477.44-11.52 243.2 243.2 0 0 0 439.04 99.072z" fill="#FFFFFF" p-id="1773"></path><path d="M362.105883 213.690835m31.455438 22.025335l377.465262 264.304022q31.455439 22.025335 9.430103 53.480774l0 0q-22.025335 31.455439-53.480773 9.430103l-377.465262-264.304022q-31.455439-22.025335-9.430104-53.480773l0 0q22.025335-31.455439 53.480774-9.430104Z" fill="#FFC0D8" p-id="1774"></path></svg>