<?xml version="1.0" standalone="no"?><!DOCTYPE svg PUBLIC "-//W3C//DTD SVG 1.1//EN" "http://www.w3.org/Graphics/SVG/1.1/DTD/svg11.dtd"><svg t="1567689948798" class="icon" viewBox="0 0 1024 1024" version="1.1" xmlns="http://www.w3.org/2000/svg" p-id="2264" xmlns:xlink="http://www.w3.org/1999/xlink" width="200" height="200"><defs><style type="text/css"></style></defs><path d="M0 0m204.8 0l614.4 0q204.8 0 204.8 204.8l0 614.4q0 204.8-204.8 204.8l-614.4 0q-204.8 0-204.8-204.8l0-614.4q0-204.8 204.8-204.8Z" fill="#FF8AAE" p-id="2265"></path><path d="M819.2 0H534.272A756.48 756.48 0 0 0 0 483.584V819.2a204.8 204.8 0 0 0 204.8 204.8h614.4a204.8 204.8 0 0 0 204.8-204.8V204.8a204.8 204.8 0 0 0-204.8-204.8z" fill="#FF83A4" p-id="2266"></path><path d="M819.2 0h-3.84a755.2 755.2 0 0 0-539.392 1024H819.2a204.8 204.8 0 0 0 204.8-204.8V204.8a204.8 204.8 0 0 0-204.8-204.8z" fill="#FF7D96" p-id="2267"></path><path d="M497.152 721.152A752.384 752.384 0 0 0 560.384 1024H819.2a204.8 204.8 0 0 0 204.8-204.8V204.8a204.8 204.8 0 0 0-89.088-168.96 755.2 755.2 0 0 0-437.76 685.312z" fill="#FF768A" p-id="2268"></path><path d="M780.8 435.2c0 158.72-191.232 355.84-251.136 413.44a25.6 25.6 0 0 1-35.328 0C435.2 792.064 243.2 595.2 243.2 435.2a268.8 268.8 0 1 1 537.6 0z" fill="#FFE9F1" p-id="2269"></path><path d="M557.824 171.776A267.52 267.52 0 0 0 243.2 435.2c0 136.96 140.8 300.544 217.6 381.184C527.872 750.592 704 563.2 704 409.6a268.544 268.544 0 0 0-146.176-237.824z" fill="#FFFFFF" p-id="2270"></path><path d="M512 436.48m-64 0a64 64 0 1 0 128 0 64 64 0 1 0-128 0Z" fill="#FFA1C3" p-id="2271"></path></svg>