<?xml version="1.0" standalone="no"?><!DOCTYPE svg PUBLIC "-//W3C//DTD SVG 1.1//EN" "http://www.w3.org/Graphics/SVG/1.1/DTD/svg11.dtd"><svg t="1567688844306" class="icon" viewBox="0 0 1024 1024" version="1.1" xmlns="http://www.w3.org/2000/svg" p-id="1004" xmlns:xlink="http://www.w3.org/1999/xlink" width="200" height="200"><defs><style type="text/css"></style></defs><path d="M0 0m204.8 0l614.4 0q204.8 0 204.8 204.8l0 614.4q0 204.8-204.8 204.8l-614.4 0q-204.8 0-204.8-204.8l0-614.4q0-204.8 204.8-204.8Z" fill="#48B5FF" p-id="1005"></path><path d="M819.2 0H534.272A756.48 756.48 0 0 0 0 483.584V819.2a204.8 204.8 0 0 0 204.8 204.8h614.4a204.8 204.8 0 0 0 204.8-204.8V204.8a204.8 204.8 0 0 0-204.8-204.8z" fill="#4DAFFF" p-id="1006"></path><path d="M819.2 0h-3.84a755.2 755.2 0 0 0-539.392 1024H819.2a204.8 204.8 0 0 0 204.8-204.8V204.8a204.8 204.8 0 0 0-204.8-204.8z" fill="#50A8FF" p-id="1007"></path><path d="M497.152 721.152A752.384 752.384 0 0 0 560.384 1024H819.2a204.8 204.8 0 0 0 204.8-204.8V204.8a204.8 204.8 0 0 0-89.088-168.96 755.2 755.2 0 0 0-437.76 685.312z" fill="#50A0FF" p-id="1008"></path><path d="M608 368.128h-192L512 128l96 240.128zM608 656.128h-192L512 896l96-239.872z" fill="#D2EFFF" p-id="1009"></path><path d="M477.952 342.272l-135.68 135.68-101.888-237.568 237.568 101.888zM681.728 546.048l-135.68 135.68 237.568 101.888-101.888-237.568z" fill="#D2EFFF" p-id="1010"></path><path d="M368.128 416v192L128 512l240.128-96zM656.128 416v192L896 512l-239.872-96z" fill="#D2EFFF" p-id="1011"></path><path d="M342.272 546.048l135.68 135.68-237.568 101.888 101.888-237.568zM546.048 342.272l135.68 135.68 101.888-237.568-237.568 101.888z" fill="#D2EFFF" p-id="1012"></path><path d="M512 512m-243.2 0a243.2 243.2 0 1 0 486.4 0 243.2 243.2 0 1 0-486.4 0Z" fill="#E9F6FF" p-id="1013"></path><path d="M512 268.8a242.944 242.944 0 0 0-195.584 387.584 242.944 242.944 0 0 0 339.968-339.968A241.664 241.664 0 0 0 512 268.8z" fill="#FFFFFF" p-id="1014"></path></svg>