<?xml version="1.0" standalone="no"?><!DOCTYPE svg PUBLIC "-//W3C//DTD SVG 1.1//EN" "http://www.w3.org/Graphics/SVG/1.1/DTD/svg11.dtd"><svg t="1567689941925" class="icon" viewBox="0 0 1024 1024" version="1.1" xmlns="http://www.w3.org/2000/svg" p-id="2137" xmlns:xlink="http://www.w3.org/1999/xlink" width="200" height="200"><defs><style type="text/css"></style></defs><path d="M0 0m204.8 0l614.4 0q204.8 0 204.8 204.8l0 614.4q0 204.8-204.8 204.8l-614.4 0q-204.8 0-204.8-204.8l0-614.4q0-204.8 204.8-204.8Z" fill="#A28FFF" p-id="2138"></path><path d="M819.2 0H534.272A756.48 756.48 0 0 0 0 483.584V819.2a204.8 204.8 0 0 0 204.8 204.8h614.4a204.8 204.8 0 0 0 204.8-204.8V204.8a204.8 204.8 0 0 0-204.8-204.8z" fill="#A288FF" p-id="2139"></path><path d="M819.2 0h-3.84a755.2 755.2 0 0 0-539.392 1024H819.2a204.8 204.8 0 0 0 204.8-204.8V204.8a204.8 204.8 0 0 0-204.8-204.8z" fill="#A280FF" p-id="2140"></path><path d="M497.152 721.152A752.384 752.384 0 0 0 560.384 1024H819.2a204.8 204.8 0 0 0 204.8-204.8V204.8a204.8 204.8 0 0 0-89.088-168.96 755.2 755.2 0 0 0-437.76 685.312z" fill="#9F73FF" p-id="2141"></path><path d="M153.6 307.2m230.4 0l256 0q230.4 0 230.4 230.4l0 0q0 230.4-230.4 230.4l-256 0q-230.4 0-230.4-230.4l0 0q0-230.4 230.4-230.4Z" fill="#F0F0FF" p-id="2142"></path><path d="M384 307.2a230.4 230.4 0 0 0-110.336 432.384A228.352 228.352 0 0 0 307.2 742.4h256a230.4 230.4 0 0 0 110.336-432.384A228.352 228.352 0 0 0 640 307.2z" fill="#FFFFFF" p-id="2143"></path><path d="M336.384 460.8m25.6 0l0 0q25.6 0 25.6 25.6l0 102.4q0 25.6-25.6 25.6l0 0q-25.6 0-25.6-25.6l0-102.4q0-25.6 25.6-25.6Z" fill="#AFA4FF" p-id="2144"></path><path d="M285.184 563.2m0-25.6l0 0q0-25.6 25.6-25.6l102.4 0q25.6 0 25.6 25.6l0 0q0 25.6-25.6 25.6l-102.4 0q-25.6 0-25.6-25.6Z" fill="#AFA4FF" p-id="2145"></path><path d="M687.616 537.6m-51.2 0a51.2 51.2 0 1 0 102.4 0 51.2 51.2 0 1 0-102.4 0Z" fill="#AFA4FF" p-id="2146"></path><path d="M512 332.8a25.6 25.6 0 0 1-25.6-25.6v-51.2a137.984 137.984 0 0 1 40.96-97.792l51.2-51.2A25.6 25.6 0 1 1 614.4 141.824l-51.2 51.2a86.272 86.272 0 0 0-25.6 60.416v51.2a25.6 25.6 0 0 1-25.6 28.16z" fill="#FFFFFF" p-id="2147"></path></svg>